<svg viewBox="0 0 512 512" xml:space="preserve" xmlns="http://www.w3.org/2000/svg" enable-background="new 0 0 512 512"><path d="M485.998 26.001C400.469 37.296 314.732 48.59 229.305 59.885 134.84 72.72 61.631 148.907 55.778 244.707c-3.389 56.984 18.481 112.432 59.348 152.169l-89.124 89.123c85.53-11.296 170.959-22.589 256.489-33.884 94.258-12.834 167.673-89.123 173.218-184.615 3.594-56.985-18.482-112.433-59.244-152.168l89.533-89.331zm-81.833 238.521c-4.314 81.63-75.982 142.928-156.893 138.102-81.63-4.826-144.468-72.902-139.95-155.044 4.621-81.32 76.29-143.03 157.097-138.102 81.425 4.826 144.263 72.902 139.746 155.044z" fill="#2e9aff" class="fill-000000"></path></svg>