<svg viewBox="0 0 512 512" xml:space="preserve" xmlns="http://www.w3.org/2000/svg" enable-background="new 0 0 512 512"><path d="m122.278 241.91 89.501 43.671c17.25 8.446 14.555 33.701-4.042 38.374l-96.601 24.085c-12.038 3.055-23.997-5.3-25.344-17.609-3.055-26.423 0-52.477 8.086-76.653 3.963-11.778 17.35-17.259 28.4-11.868zm39.54 214.948c21.292 14.555 45.648 24.535 71.353 28.849 12.22 2.067 23.54-7.097 23.908-19.495l3.503-99.563c.628-19.138-22.909-28.671-35.766-14.465l-66.673 74.047c-8.275 9.235-6.568 23.621 3.675 30.627zm130.568-98.755 52.837 84.471c6.56 10.511 20.935 12.847 30.555 4.94 20.126-16.621 36.216-37.383 47.357-60.741 5.299-11.23-.448-24.537-12.221-28.399l-94.711-30.734c-18.247-5.841-33.969 14.193-23.817 30.463zM425.65 239.304c-10.602-24.356-26.242-45.469-45.291-62.27-9.253-8.175-23.628-6.289-30.555 3.954l-55.712 82.585c-10.691 15.901 4.223 36.483 22.64 31.184l95.791-27.412c11.96-3.504 18.068-16.622 13.127-28.041zM139.536 53.114c-10.781 5.121-14.822 18.418-8.894 28.758l93.544 162.104c10.512 18.149 38.282 10.692 38.282-10.242V46.555c.091-11.949-10.063-21.473-22.011-20.484-20.771 1.617-58.694 6.918-100.921 27.043z" fill="#2599e6" class="fill-d32323"></path></svg>