<svg viewBox="0 0 64 64" xmlns="http://www.w3.org/2000/svg"><path d="m56.85 38.27 3.91 2.25a29.41 29.41 0 0 1-7 12.12l-3.9-2.25a3.93 3.93 0 0 0-4.28.18A23.2 23.2 0 0 1 41.33 53 4 4 0 0 0 39 56.71v4.45a29.59 29.59 0 0 1-14 0v-4.45A4 4 0 0 0 22.67 53a23.2 23.2 0 0 1-4.24-2.46 3.93 3.93 0 0 0-4.28-.18l-3.9 2.25a29.54 29.54 0 0 1-7-12.12l3.91-2.25a4 4 0 0 0 2-3.79 23.49 23.49 0 0 1 0-5 4 4 0 0 0-2-3.79l-3.92-2.18a29.51 29.51 0 0 1 7-12.12l3.9 2.25a3.93 3.93 0 0 0 4.28-.18A23.2 23.2 0 0 1 22.67 11 4 4 0 0 0 25 7.29V2.84a29.59 29.59 0 0 1 14 0v4.45A4 4 0 0 0 41.33 11a23.2 23.2 0 0 1 4.24 2.46 3.93 3.93 0 0 0 4.28.18l3.9-2.25a29.45 29.45 0 0 1 7 12.12l-3.91 2.25a4 4 0 0 0-2 3.79 23.49 23.49 0 0 1 0 5 4 4 0 0 0 2.01 3.72Z" fill="#e8f1fa" class="fill-d1e7ff"></path><path d="M24.52 63.1A2 2 0 0 1 23 61.16v-4.45a2 2 0 0 0-1.14-1.85 25.38 25.38 0 0 1-4.62-2.68 1.92 1.92 0 0 0-2.09-.06l-3.9 2.25A2 2 0 0 1 8.8 54a31.46 31.46 0 0 1-7.48-12.92 2 2 0 0 1 .92-2.29l3.91-2.26a1.93 1.93 0 0 0 1-1.84 25.45 25.45 0 0 1 0-5.38 1.93 1.93 0 0 0-1-1.84l-3.91-2.26a2 2 0 0 1-.92-2.29A31.59 31.59 0 0 1 8.8 10a2 2 0 0 1 2.45-.35c7.19 4.14 3.42 2.71 10.61-.49A2 2 0 0 0 23 7.29V2.84A2 2 0 0 1 24.52.9a31.79 31.79 0 0 1 15 0A2 2 0 0 1 41 2.84v4.45a2 2 0 0 0 1.14 1.85c7.19 3.2 3.41 4.64 10.61.49a2 2 0 0 1 2.45.37 31.68 31.68 0 0 1 7.48 12.94 2 2 0 0 1-.92 2.29l-3.91 2.26a1.93 1.93 0 0 0-1 1.84 25.45 25.45 0 0 1 0 5.38 1.93 1.93 0 0 0 1 1.84c.1 0-.65-.37 3.91 2.26a2 2 0 0 1 .92 2.29A31.59 31.59 0 0 1 55.2 54a2 2 0 0 1-2.45.35c-7.2-4.15-3.42-2.71-10.61.49A2 2 0 0 0 41 56.71v4.45a2 2 0 0 1-1.52 1.94 31.53 31.53 0 0 1-14.96 0ZM27 59.55a28 28 0 0 0 10 0v-2.84a6 6 0 0 1 3.51-5.51 20.85 20.85 0 0 0 3.88-2.2 5.93 5.93 0 0 1 6.46-.29l2.5 1.44a27.58 27.58 0 0 0 5-8.66L55.86 40a5.92 5.92 0 0 1-3-5.74 21.34 21.34 0 0 0 0-4.52 5.92 5.92 0 0 1 3-5.74l2.5-1.44a27.32 27.32 0 0 0-5-8.66l-2.5 1.44a5.93 5.93 0 0 1-6.46-.29 20.85 20.85 0 0 0-3.88-2.25A6 6 0 0 1 37 7.29V4.45a28 28 0 0 0-10 0v2.84a6 6 0 0 1-3.52 5.51 21.1 21.1 0 0 0-3.87 2.25 5.93 5.93 0 0 1-6.46.29l-2.5-1.44a27.51 27.51 0 0 0-5 8.66L8.15 24a5.93 5.93 0 0 1 3 5.74 21.34 21.34 0 0 0 0 4.52 5.92 5.92 0 0 1-3 5.74l-2.5 1.44a27.55 27.55 0 0 0 5 8.66l2.5-1.44a5.93 5.93 0 0 1 6.46.29 21.1 21.1 0 0 0 3.87 2.25A6 6 0 0 1 27 56.71Z" fill="#7991f2" class="fill-2e58ff"></path><circle cx="32" cy="32" r="14" fill="#c4dcf5" class="fill-8bc4ff"></circle><path d="M32 48a16 16 0 1 1 16-16 16 16 0 0 1-16 16Zm0-28a12 12 0 1 0 12 12 12 12 0 0 0-12-12Z" fill="#7991f2" class="fill-2e58ff"></path></svg>