<svg fill="none" viewBox="0 0 24 24" xmlns="http://www.w3.org/2000/svg"><path d="M14 12a2 2 0 1 1-4 0 2 2 0 0 1 4 0Z" fill="#595656" class="fill-000000"></path><path clip-rule="evenodd" d="M12 6a6 6 0 1 0 0 12 6 6 0 0 0 0-12Zm-8 6a8 8 0 1 1 16 0 8 8 0 0 1-16 0Z" fill="#595656" fill-rule="evenodd" class="fill-000000"></path><path d="M4.36 6.68a1 1 0 0 1 .107-1.29l.924-.923a1 1 0 0 1 1.288-.106l1.785 1.275-2.828 2.829-1.275-1.786ZM19.64 17.321a1 1 0 0 1-.107 1.288l-.924.924a1 1 0 0 1-1.288.106l-1.785-1.275 2.828-2.829 1.275 1.786ZM17.321 4.36a1 1 0 0 1 1.288.107l.924.924a1 1 0 0 1 .106 1.288l-1.275 1.785-2.829-2.828 1.786-1.275ZM6.679 19.64a1 1 0 0 1-1.288-.107l-.924-.924a1 1 0 0 1-.106-1.288l1.275-1.786 2.828 2.829-1.785 1.275ZM21.164 10.36a1 1 0 0 1 .836.987v1.306a1 1 0 0 1-.836.986L19 14v-4l2.164.36ZM2.836 13.64A1 1 0 0 1 2 12.652v-1.306a1 1 0 0 1 .836-.986L5 10v4l-2.164-.36ZM10.36 2.836A1 1 0 0 1 11.348 2h1.306a1 1 0 0 1 .986.836L14 5h-4l.36-2.164ZM13.64 21.164a1 1 0 0 1-.987.836h-1.306a1 1 0 0 1-.986-.836L10 19h4l-.36 2.164Z" fill="#595656" class="fill-000000"></path></svg>